# xmcd
#
# Track frame offsets:
#	150
#	26119
#	55759
#	87941
#	119155
#	150337
#	181797
#	209234
#
# Disc length: 3167 seconds
#
# Revision: 1
# Processed by: cddbd v1.5.2PL0 Copyright (c) Steve Scherf et al.
# Submitted via: audiograbber 1.83.01
#
DISCID=6b0c5d08
DTITLE=Sash - Life Goes On[Remix]
DYEAR=1999
DGENRE=House
TTITLE0=La Primera(Original Extended)
TTITLE1=La Primera(Oliver Momm Remix)
TTITLE2=Mysterious Times(John B.Norman 12')
TTITLE3=Mysterious Times(Todd Terrys Club Mix)
TTITLE4=Move Mania(Original Extended)
TTITLE5=Move Mania(Morel and Bristol Da Boom Mix)
TTITLE6=Colour Of The World(Original Extended)
TTITLE7=Colour Of The World(Dario G. X-Tended Version)
EXTD=
EXTT0=
EXTT1=
EXTT2=
EXTT3=
EXTT4=
EXTT5=
EXTT6=
EXTT7=
PLAYORDER=
